<svg xmlns="http://www.w3.org/2000/svg" viewBox="0 0 120 24.63"><path class="a" d="M36.57,8a4.61,4.61,0,1,0,4.61,4.61A4.6,4.6,0,0,0,36.57,8Zm0,7.06a2.46,2.46,0,1,1,0-4.91,2.54,2.54,0,0,1,.83.15l-.63,1.25a1.46,1.46,0,0,1,.7.82l1.44-.47a2.35,2.35,0,0,1,.12.71A2.45,2.45,0,0,1,36.57,15Z"></path><path class="a" d="M83.59,3.23h5.7c3.86,0,6.08,1.77,6.08,4.87v.06a4.34,4.34,0,0,1-1.69,3.55,7.13,7.13,0,0,1-4.51,1.36H83.59Zm0,0Zm5.9-3H81.14a.81.81,0,0,0-.81.81V24.47h3.26V16.1h5.47a11.23,11.23,0,0,0,6.74-2,7.31,7.31,0,0,0,2.87-6V8a7.24,7.24,0,0,0-2.53-5.76A10.22,10.22,0,0,0,89.49.18Z"></path><path class="a" d="M102.5,15.2l5-11.08,4.91,11.08Zm0,0Zm5-15.2a2.23,2.23,0,0,0-2,1.31L95.15,24l-.18.43h3.39l.07-.18,2.73-6.07h12.53l2.71,6.07.07.18H120l-.18-.43L109.53,1.31A2.24,2.24,0,0,0,107.49,0Z"></path><path class="a" d="M15.11,24.63H9V6.2H0V.54H24.13V6.2h-9Z"></path><path class="a" d="M75,24.63H68.41V12.33l-6.47,7.1h-.61l-6.4-7V24.63H48.42V.54h5.29l8,9.48,8-9.48H75Z"></path><path class="a" d="M42.54,16.17l-.34.3C40.41,18,38.9,19,36.48,19A6,6,0,0,1,32,17.14a6.6,6.6,0,0,1-1.78-4.52v-.09A6.46,6.46,0,0,1,32,8a6.08,6.08,0,0,1,4.4-1.9A7.37,7.37,0,0,1,40.3,7.22l.16.11,3.46-4.69h0l0,0-.45-.27A13.72,13.72,0,0,0,36.34.66a12.69,12.69,0,0,0-9,3.57A11.64,11.64,0,0,0,24,12.67v.08a11.56,11.56,0,0,0,3.59,8.35,12.52,12.52,0,0,0,8.69,3.35h.14a12.65,12.65,0,0,0,9.77-4.18l.34-.37Z"></path></svg>